<?xml version="1.0" encoding="UTF-8" standalone="no"?>
<svg
   xmlns:dc="http://purl.org/dc/elements/1.1/"
   xmlns:cc="http://creativecommons.org/ns#"
   xmlns:rdf="http://www.w3.org/1999/02/22-rdf-syntax-ns#"
   xmlns:svg="http://www.w3.org/2000/svg"
   xmlns="http://www.w3.org/2000/svg"
   xmlns:sodipodi="http://sodipodi.sourceforge.net/DTD/sodipodi-0.dtd"
   xmlns:inkscape="http://www.inkscape.org/namespaces/inkscape"
   width="16"
   height="16"
   viewBox="0 0 4.2333333 4.2333333"
   version="1.1"
   id="svg8"
   inkscape:version="1.0 (4035a4fb49, 2020-05-01)"
   sodipodi:docname="ash.svg">
  <defs
     id="defs2" />
  <sodipodi:namedview
     id="base"
     pagecolor="#ffffff"
     bordercolor="#666666"
     borderopacity="1.0"
     inkscape:pageopacity="0.0"
     inkscape:pageshadow="2"
     inkscape:zoom="32"
     inkscape:cx="11.52659"
     inkscape:cy="11.482005"
     inkscape:document-units="mm"
     inkscape:current-layer="layer1"
     inkscape:document-rotation="0"
     showgrid="false"
     inkscape:snap-global="false"
     fit-margin-top="0"
     fit-margin-left="0"
     fit-margin-right="0"
     fit-margin-bottom="0"
     units="px"
     inkscape:window-width="3840"
     inkscape:window-height="2050"
     inkscape:window-x="-12"
     inkscape:window-y="-12"
     inkscape:window-maximized="1" />
  <metadata
     id="metadata5">
    <rdf:RDF>
      <cc:Work
         rdf:about="">
        <dc:format>image/svg+xml</dc:format>
        <dc:type
           rdf:resource="http://purl.org/dc/dcmitype/StillImage" />
        <dc:title></dc:title>
      </cc:Work>
    </rdf:RDF>
  </metadata>
  <g
     inkscape:label="Layer 1"
     inkscape:groupmode="layer"
     id="layer1"
     transform="translate(-3.6380212,-2.7875745)">
    <path
       sodipodi:nodetypes="cscssssaszccccccccsssccccscsssscccssssccccscccssccccccccscccccccssscscscccccsscscccccccscsccccccccccsc"
       d="m 4.1744226,3.2040866 c -0.00896,0.054968 0.011695,0.1158849 0.026355,0.1720825 0.010975,0.042073 0.032469,0.081038 0.045992,0.1224731 0.022236,0.068129 0.032617,0.1394837 0.057878,0.2067058 0.046204,0.1229589 0.1059937,0.241665 0.1700155,0.3576009 0.037085,0.067158 0.072806,0.136133 0.1240234,0.1948201 0.077267,0.088535 0.1698018,0.1673721 0.271818,0.2309937 0.103268,0.064402 0.2218143,0.106774 0.3374471,0.1483113 0.050036,0.017974 0.110148,0.01255 0.153479,0.043408 0.051775,0.036872 0.1119421,0.1091637 0.1643311,0.1782837 0.052389,0.06912 0.141501,0.2000286 0.1777669,0.2501139 0.013024,0.014941 0.021276,0.026036 0.040308,0.045992 -0.017145,-0.021616 0.00606,-0.033578 -0.00878,-0.051676 0.028985,-0.0643 0.036383,-0.1498014 0.045992,-0.2211751 -0.013995,0.028807 -0.021746,0.054048 -0.025321,0.074931 -0.00979,-7.371e-4 -0.020216,0.055111 -0.041341,0.1209229 C 5.6419344,4.9441219 5.6017927,4.9159471 5.5376468,4.8308606 5.5190329,4.802474 5.4194393,4.7242355 5.4053552,4.6727308 5.3659282,4.5285417 5.4008884,4.3718708 5.3588464,4.2283134 5.3311553,4.1337595 5.291674,4.0385721 5.2260379,3.9616631 5.1194271,3.836742 4.9589374,3.7603516 4.8198612,3.6665906 4.7313884,3.606945 4.6394044,3.5516482 4.5475264,3.4965752 4.4554332,3.4413728 4.3465579,3.4066775 4.2679569,3.3358615 4.2273459,3.2992735 4.1930485,3.2509435 4.1744226,3.2040866 Z m 1.6066202,1.6779337 c 0.01051,-0.021632 0.023097,-0.044629 0.048059,-0.072864 0.028788,-0.032563 0.080878,-0.056388 0.1173055,-0.080098 0.075655,-0.068377 0.1771596,-0.077307 0.2516642,-0.1457276 0.073602,-0.067591 0.1376285,-0.1473321 0.1881023,-0.2335774 0.033457,-0.057169 0.052894,-0.1216638 0.073897,-0.1844849 0.036258,-0.1084494 0.068883,-0.218847 0.089917,-0.3312459 0.011499,-0.061449 0.010685,-0.1246806 0.019637,-0.1865519 0.00544,-0.037629 0.017354,-0.074262 0.020672,-0.1121379 0.00443,-0.050591 0.01334,-0.1052584 -0.00103,-0.1519287 C 6.5804268,3.42636 6.5586978,3.471771 6.5308698,3.508461 6.4770098,3.579474 6.3945157,3.6230155 6.3277815,3.6820938 6.2612025,3.7410338 6.1946573,3.7999436 6.1314109,3.8624445 6.0319899,3.9606945 5.9133715,4.0464536 5.84409,4.1678522 5.801436,4.2425922 5.781624,4.3304125 5.771743,4.4158991 5.756742,4.5456898 5.80851,4.6779471 5.792414,4.8076064 c -0.00239,0.019216 -0.00742,0.045083 -0.011369,0.074414 z m -0.037207,0.2728516 c 0.049693,0.062651 0.09856,0.127674 0.1390096,0.1917195 0.018563,0.029392 0.031866,0.051745 0.053744,0.086816 -0.022127,0.018025 -0.1766892,0.1335397 -0.2775024,0.1756998 -0.1349682,0.056445 -0.2936397,0.047464 -0.4273641,0.099219 -0.088076,0.03409 -0.1753324,0.077118 -0.2397787,0.1364261 -0.1046776,0.096332 -0.1529819,0.224981 -0.2216919,0.3405475 -0.04371,0.073517 -0.082265,0.1489314 -0.1209228,0.2242757 -0.038749,0.07552 -0.054798,0.1604941 -0.1111043,0.2284098 -0.029096,0.035085 -0.070341,0.066851 -0.1131714,0.087333 0.055386,-0.00146 0.1111653,-0.025501 0.1638143,-0.044442 0.039416,-0.014182 0.074292,-0.035202 0.1126546,-0.05116 0.063082,-0.026236 0.1315838,-0.044545 0.1932698,-0.072864 C 5.0076291,6.5050563 5.1137591,6.4439419 5.2167367,6.3801189 5.2763897,6.3431499 5.3382819,6.3073499 5.3872689,6.261263 5.4611709,6.191738 5.5227894,6.1122203 5.5681364,6.0282024 c 0.045903,-0.085049 0.043967,-0.1826845 0.0894,-0.2687175 0.011997,-0.038674 -0.00487,-0.085058 0.016536,-0.1188558 C 5.7332224,5.5472341 5.912266,5.474962 5.9515748,5.4576946 6.1551013,5.6928451 6.2854119,6.1121761 6.277653,6.1134683 l 0.053744,-0.00207 c -0.00948,-0.056154 -0.1007918,-0.3184328 -0.3286623,-0.661454 0.029338,-0.031343 0.099674,-0.1925535 0.1524455,-0.2067057 0.044915,-0.012044 0.1080449,0.01146 0.162264,0.014469 0.070533,0.00391 0.1056835,0.018366 0.2118733,0.00465 0.1049028,-0.013548 0.2098667,-0.045301 0.3079916,-0.093018 0.065042,-0.03163 0.1233908,-0.080293 0.1819011,-0.1260905 0.1010076,-0.079064 0.2003763,-0.162269 0.2914549,-0.2557982 0.049792,-0.051133 0.090517,-0.1125577 0.138493,-0.1658813 0.029177,-0.032431 0.062845,-0.059374 0.090434,-0.093534 0.036851,-0.045628 0.080412,-0.092769 0.099219,-0.1477946 C 7.6033491,4.415428 7.5555571,4.444493 7.5085864,4.46034 7.4176744,4.491013 7.3211331,4.474986 7.2274666,4.485145 7.1340192,4.4952812 7.0404245,4.5054198 6.9473798,4.5213188 6.8011173,4.5463129 6.6473827,4.5459343 6.5107141,4.6143364 6.4265731,4.6564423 6.3527451,4.7275354 6.2885054,4.8029554 6.1909735,4.9174626 6.2221317,5.0995899 6.1262414,5.2158501 6.0902721,5.2594603 6.0035491,5.3845975 5.9789635,5.3998182 5.9431076,5.3530894 5.8363981,5.2345093 5.8032637,5.2101656 5.7813459,5.1940628 5.7639216,5.1733327 5.7438358,5.1548719 Z m -0.040308,-0.045992 c -0.024457,-0.00247 -0.1051146,0.00109 -0.1762167,0.014469 0.1525433,0.00987 0.1532083,-0.013607 0.1762167,-0.014469 z m -0.1762167,0.014469 c -0.025108,-0.00162 -0.044307,-0.00186 -0.079065,-0.00568 C 5.3236008,5.1064066 5.2135389,5.024628 5.0896122,5.005527 5.0488002,4.999237 5.0071992,4.994867 4.9655887,4.994158 4.9239787,4.9934495 4.8828057,4.996338 4.8431156,5.00501 4.7141791,5.033173 4.6062843,5.1109501 4.4917159,5.1698578 c -0.072882,0.037473 -0.1430595,0.078772 -0.2134237,0.1198893 -0.070529,0.041213 -0.1302088,0.099542 -0.2087728,0.1271241 -0.040592,0.01425 -0.088299,0.021187 -0.1302246,0.018087 0.039901,0.023342 0.093106,0.029094 0.1410767,0.037724 0.035914,0.00645 0.07285,0.00571 0.1090372,0.010335 0.0595,0.00761 0.118057,0.023569 0.177767,0.028939 0.1092166,0.00984 0.2190035,0.00948 0.3281453,0.00568 0.063222,-0.0022 0.127704,-0.00258 0.188619,-0.016536 0.091896,-0.021053 0.1804062,-0.054874 0.2604492,-0.099736 0.081026,-0.045412 0.135785,-0.122084 0.217041,-0.168465 0.03058,-0.024575 0.045223,-0.066391 0.079582,-0.084233 0.021905,-0.011375 0.053183,-0.019091 0.0863,-0.025322 z"
       style="fill:#00713f;fill-opacity:1;stroke:#073009;stroke-width:0.1;stroke-linecap:butt;stroke-linejoin:round;stroke-miterlimit:4;stroke-dasharray:none;stroke-opacity:1"
       id="path1995" />
  </g>
</svg>
