<?xml version="1.0" encoding="UTF-8" standalone="no"?>
<svg
   xmlns:dc="http://purl.org/dc/elements/1.1/"
   xmlns:cc="http://creativecommons.org/ns#"
   xmlns:rdf="http://www.w3.org/1999/02/22-rdf-syntax-ns#"
   xmlns:svg="http://www.w3.org/2000/svg"
   xmlns="http://www.w3.org/2000/svg"
   xmlns:sodipodi="http://sodipodi.sourceforge.net/DTD/sodipodi-0.dtd"
   xmlns:inkscape="http://www.inkscape.org/namespaces/inkscape"
   sodipodi:docname="birch.svg"
   inkscape:version="1.0 (4035a4fb49, 2020-05-01)"
   id="svg8"
   version="1.1"
   viewBox="0 0 4.2333333 4.2333333"
   height="16"
   width="16">
  <defs
     id="defs2" />
  <sodipodi:namedview
     inkscape:window-maximized="1"
     inkscape:window-y="-12"
     inkscape:window-x="-12"
     inkscape:window-height="2050"
     inkscape:window-width="3840"
     units="px"
     fit-margin-bottom="0"
     fit-margin-right="0"
     fit-margin-left="0"
     fit-margin-top="0"
     inkscape:snap-global="false"
     showgrid="false"
     inkscape:document-rotation="0"
     inkscape:current-layer="layer1"
     inkscape:document-units="mm"
     inkscape:cy="-8.397028"
     inkscape:cx="51.554361"
     inkscape:zoom="22.627417"
     inkscape:pageshadow="2"
     inkscape:pageopacity="0.0"
     borderopacity="1.0"
     bordercolor="#666666"
     pagecolor="#ffffff"
     id="base" />
  <metadata
     id="metadata5">
    <rdf:RDF>
      <cc:Work
         rdf:about="">
        <dc:format>image/svg+xml</dc:format>
        <dc:type
           rdf:resource="http://purl.org/dc/dcmitype/StillImage" />
        <dc:title />
      </cc:Work>
    </rdf:RDF>
  </metadata>
  <g
     transform="translate(-3.6380212,-2.7875745)"
     id="layer1"
     inkscape:groupmode="layer"
     inkscape:label="Layer 1">
    <path
       sodipodi:nodetypes="ssssssscssssszssscsszsaaaaccccaaaaasscssscascssssssssssscss"
       d="m 5.4798478,3.6228758 c -0.074928,-0.079411 0.031377,0.296218 -0.056804,0.2077392 -0.0488,-0.048965 -0.04818,0.080678 -0.1460657,-0.00328 -0.087018,-0.074633 0.09113,0.3076221 -0.0082,0.2482652 -0.05098,-0.030464 -0.1238599,0.056519 -0.2309917,-0.032185 -0.069027,-0.057154 -6.56e-4,0.1980748 0.018233,0.2402582 0.032018,0.071504 -0.06411,0.1342893 -0.1444766,0.051535 -0.066947,-0.068935 -0.081054,0.07843 -0.045211,0.2070837 -0.084801,-0.011867 -0.091375,0.074644 -0.2118864,-0.031103 -0.075356,-0.066125 -0.1057543,0.041914 -0.015475,0.178064 0.028645,0.043199 -0.1285486,0.07142 -0.1579875,0.054296 -0.027002,-0.015706 -0.080715,0.026032 -0.00743,0.1269288 0.047694,0.065665 -0.2321875,-0.082789 -0.2269892,-0.048024 0.011087,0.074148 0.031328,0.1806935 0.1563749,0.2443998 0.1250475,0.063706 -0.1259389,0.054494 -0.1132811,0.1291746 0.00654,0.038558 0.037149,0.09101 0.09516,0.1250022 0.076193,0.044647 0.1934968,0.0559 0.2136645,0.09107 C 4.6258474,5.4598224 4.482373,5.52655 4.404552,5.531656 c 0.039046,0.021731 0.111369,0.092487 0.2544076,0.096716 0.081376,0.00241 0.1630769,-0.029802 0.142812,0.046711 -0.00808,0.030522 -0.2982915,0.1157137 -0.1568275,0.1427342 0.141464,0.02702 0.2492311,-0.00139 0.400422,0.020552 0.045624,0.00662 -0.097192,0.071765 -0.078467,0.1138926 0.022064,0.04964 0.1075811,0.015292 0.161572,0.021287 0.067372,0.00748 0.1347501,0.017553 0.2025318,0.01831 0.056033,6.255e-4 0.1131883,0.00149 0.167722,-0.011395 0.084211,-0.019902 0.173129,-0.05456 0.2394761,-0.100223 C 5.685582,6.2339554 5.714014,6.702624 5.714014,6.702624 5.746328,6.759179 5.76081,6.755469 5.8514315,6.694084 c 0,0 -0.063649,-0.4666513 -0.043186,-0.8028263 0.066347,0.045662 0.1439423,0.0708 0.2209599,0.091253 0.048763,0.01295 0.099679,0.019299 0.1501328,0.019247 0.070739,-7.3e-5 0.1413468,-0.012246 0.2104396,-0.02742 0.086665,-0.019034 0.2462156,0.009 0.2540817,-0.07938 0.00526,-0.059071 -0.1612698,-0.02301 -0.1577802,-0.082211 0.0052,-0.088166 0.1412496,-0.074865 0.2477286,-0.09398 C 6.9018913,5.688613 6.9774601,5.6402499 6.9262212,5.5898455 6.8671939,5.5317796 6.7435707,5.5289967 6.8010499,5.4879402 6.9384533,5.4733239 7.0414511,5.410515 7.1198298,5.3259267 7.2131024,5.2252644 6.8460448,5.3120766 6.9570442,5.2138514 6.9692886,5.2030161 7.2992377,5.0343461 7.0723356,4.9969769 c -0.1194,-0.019664 0.1134093,-0.1541134 0.1410892,-0.2895937 -0.036914,0.026018 -0.075485,0.036795 -0.1164072,0.041869 -0.043652,0.00541 -0.1239183,0.04045 -0.1313189,-0.012981 -0.00807,-0.058275 0.012634,-0.1183467 0.00274,-0.1896898 -0.037445,-0.021471 -0.1957814,0.1015058 -0.1862896,-7.242e-4 0.011397,-0.1227541 0.068411,-0.1608905 0.048085,-0.23242 -0.021735,-0.07649 -0.1221807,0.1058343 -0.286664,0.1241653 -0.090872,0.010127 -0.026491,-0.1463553 -0.033438,-0.2137141 -0.00498,-0.048301 -0.07024,-0.033704 -0.1463423,0.041888 -0.069205,0.06874 -0.047736,-0.1188063 -0.069727,-0.1775522 -0.00692,-0.018478 -0.034897,-0.00466 -0.049749,0.00869 -0.062069,0.05578 0.013275,-0.117979 -0.023326,-0.2372828 -0.022358,-0.072875 -0.051797,0.018753 -0.075799,0.029295 C 6.0116468,3.9475804 6.077273,3.5928616 6.014542,3.610767 5.8060712,3.6702713 5.8978945,3.2856968 5.8303123,3.4294015 5.7803113,3.535722 5.7342497,3.1899196 5.683804,3.066601 5.6277992,3.235941 5.6439322,3.5417126 5.5746486,3.4225382 5.5260551,3.3389526 5.5971255,3.7471693 5.4798478,3.6228758 Z"
       style="fill:#00713f;fill-opacity:1;stroke:#073009;stroke-width:0.1;stroke-linecap:butt;stroke-linejoin:round;stroke-miterlimit:4;stroke-dasharray:none;stroke-opacity:1"
       id="path835" />
  </g>
</svg>
