<?xml version="1.0" encoding="UTF-8" standalone="no"?>
<svg
   xmlns:dc="http://purl.org/dc/elements/1.1/"
   xmlns:cc="http://creativecommons.org/ns#"
   xmlns:rdf="http://www.w3.org/1999/02/22-rdf-syntax-ns#"
   xmlns:svg="http://www.w3.org/2000/svg"
   xmlns="http://www.w3.org/2000/svg"
   xmlns:sodipodi="http://sodipodi.sourceforge.net/DTD/sodipodi-0.dtd"
   xmlns:inkscape="http://www.inkscape.org/namespaces/inkscape"
   width="16"
   height="16"
   viewBox="0 0 4.2333333 4.2333333"
   version="1.1"
   id="svg8"
   inkscape:version="1.0 (4035a4fb49, 2020-05-01)"
   sodipodi:docname="chestnut.svg">
  <defs
     id="defs2" />
  <sodipodi:namedview
     id="base"
     pagecolor="#ffffff"
     bordercolor="#666666"
     borderopacity="1.0"
     inkscape:pageopacity="0.0"
     inkscape:pageshadow="2"
     inkscape:zoom="64.000003"
     inkscape:cx="8.7976387"
     inkscape:cy="3.6520056"
     inkscape:document-units="mm"
     inkscape:current-layer="layer1"
     inkscape:document-rotation="0"
     showgrid="false"
     inkscape:snap-global="false"
     fit-margin-top="0"
     fit-margin-left="0"
     fit-margin-right="0"
     fit-margin-bottom="0"
     units="px"
     inkscape:window-width="3840"
     inkscape:window-height="2050"
     inkscape:window-x="-12"
     inkscape:window-y="-12"
     inkscape:window-maximized="1" />
  <metadata
     id="metadata5">
    <rdf:RDF>
      <cc:Work
         rdf:about="">
        <dc:format>image/svg+xml</dc:format>
        <dc:type
           rdf:resource="http://purl.org/dc/dcmitype/StillImage" />
        <dc:title />
      </cc:Work>
    </rdf:RDF>
  </metadata>
  <g
     inkscape:label="Layer 1"
     inkscape:groupmode="layer"
     id="layer1"
     transform="translate(-3.6380212,-2.7875745)">
    <path
       id="path835"
       style="fill:#00713f;fill-opacity:1;stroke:#073009;stroke-width:0.1;stroke-linecap:round;stroke-linejoin:round;stroke-opacity:1;stroke-miterlimit:4;stroke-dasharray:none"
       d="m 5.2280823,3.432205 c -0.072265,0.1832887 -0.035362,0.3958995 -0.00798,0.5910077 0.067516,0.481041 0.3533111,0.9115696 0.420035,1.3954211 C 5.4456577,5.1295402 5.3104406,4.6057219 5.0774687,4.2368194 4.984019,4.0888454 4.9009389,3.9114913 4.7464299,3.8292955 4.5691516,3.7349868 4.353122,3.9196879 4.1464177,3.7756213 c 0.062638,0.1440666 -0.09914,0.5309166 0.00839,0.7604929 0.083273,0.1777794 0.2902215,0.2655351 0.4482699,0.3819846 0.320475,0.2361248 0.7385741,0.3895697 1.0090843,0.6386557 C 5.2757634,5.4866182 4.8779369,5.1371762 4.469088,5.0791032 4.3457825,5.0615889 4.2093719,5.0659855 4.0978677,5.1214635 3.9608844,5.1896185 4.0116136,5.3696787 3.7812977,5.4538326 3.9230306,5.5557031 3.9378023,5.7517447 4.0753844,5.8336675 4.1974063,5.9063249 4.3539158,5.9075255 4.495841,5.9024585 4.8552091,5.8896282 5.2366333,5.6003513 5.5453447,5.6527938 5.3928196,5.8012064 5.2202028,5.7237312 5.0724654,5.7966674 4.9254484,5.869248 4.7677485,5.9496212 4.6726627,6.08319 4.5786351,6.2152725 4.5907238,6.3490672 4.5343499,6.5495075 4.7473179,6.461815 4.8525946,6.5718059 4.9986782,6.5197126 5.1459027,6.4672102 5.2765775,6.364027 5.3800416,6.2468665 5.5114989,6.0980053 5.5977697,5.7688254 5.6641164,5.7231632 l -0.060598,0.9063624 c 0.011851,-0.00191 0.1578803,-0.00562 0.1578803,-0.00562 L 5.7580487,5.7273297 C 5.8243957,5.7729917 5.9436484,6.073571 6.0762211,6.215544 6.1805453,6.327265 6.2965824,6.4457012 6.4423817,6.4916117 6.5894281,6.5379149 6.719584,6.3914881 6.9045764,6.4750083 6.7918301,6.3121521 6.9154845,6.2275733 6.8535814,6.1286461 6.7505167,5.9639387 6.5466185,5.8855078 6.3720789,5.8001451 6.2072868,5.7195498 6.0251731,5.7381718 5.8481494,5.6317219 6.1347151,5.6279988 6.48572,5.842891 6.8169419,5.8562795 c 0.1637027,0.00662 0.3454554,0.01187 0.4862105,-0.071977 0.1584994,-0.094418 0.2004402,-0.3488982 0.3319794,-0.4428547 -0.1753854,0 -0.2440099,-0.2287371 -0.398508,-0.2761779 C 7.1186648,5.0290486 6.9868786,5.0421073 6.8664587,5.0690391 6.4938761,5.152367 6.1556284,5.5004041 5.8253046,5.5463756 6.0770235,5.3912461 6.5360214,5.1280109 6.8455459,4.85905 7.0329225,4.6962294 7.239989,4.5310458 7.343752,4.305538 7.4196178,4.140659 7.3327093,3.9096859 7.4141377,3.7656193 7.2825986,3.8219932 7.0017747,3.6597257 6.8234135,3.7434785 6.5918465,3.8522151 6.4915184,4.1351788 6.3557036,4.3519766 6.1462991,4.6862438 6.064114,5.1233636 5.8261553,5.4102023 5.8928046,5.0623407 6.2043082,4.5641586 6.2512927,4.1108874 6.2775318,3.8577512 6.2892198,3.5756259 6.1677476,3.3519946 6.065546,3.163841 5.7330362,3.1208505 5.6703985,2.9454651 5.6390796,3.0957955 5.3084943,3.2282539 5.2280823,3.432205 Z"
       sodipodi:nodetypes="aacaacaacaacaacaacaaccccaacaacaacaacaacaacaaca" />
  </g>
</svg>
