<?xml version="1.0" encoding="UTF-8" standalone="no"?>
<svg
   xmlns:dc="http://purl.org/dc/elements/1.1/"
   xmlns:cc="http://creativecommons.org/ns#"
   xmlns:rdf="http://www.w3.org/1999/02/22-rdf-syntax-ns#"
   xmlns:svg="http://www.w3.org/2000/svg"
   xmlns="http://www.w3.org/2000/svg"
   xmlns:sodipodi="http://sodipodi.sourceforge.net/DTD/sodipodi-0.dtd"
   xmlns:inkscape="http://www.inkscape.org/namespaces/inkscape"
   width="16"
   height="16"
   viewBox="0 0 4.2333333 4.2333333"
   version="1.1"
   id="svg8"
   inkscape:version="1.0 (4035a4fb49, 2020-05-01)"
   sodipodi:docname="linden.svg">
  <defs
     id="defs2" />
  <sodipodi:namedview
     id="base"
     pagecolor="#ffffff"
     bordercolor="#666666"
     borderopacity="1.0"
     inkscape:pageopacity="0.0"
     inkscape:pageshadow="2"
     inkscape:zoom="32"
     inkscape:cx="10.957952"
     inkscape:cy="5.4853746"
     inkscape:document-units="mm"
     inkscape:current-layer="layer1"
     inkscape:document-rotation="0"
     showgrid="false"
     inkscape:snap-global="false"
     fit-margin-top="0"
     fit-margin-left="0"
     fit-margin-right="0"
     fit-margin-bottom="0"
     units="px"
     inkscape:window-width="3840"
     inkscape:window-height="2050"
     inkscape:window-x="-12"
     inkscape:window-y="-12"
     inkscape:window-maximized="1" />
  <metadata
     id="metadata5">
    <rdf:RDF>
      <cc:Work
         rdf:about="">
        <dc:format>image/svg+xml</dc:format>
        <dc:type
           rdf:resource="http://purl.org/dc/dcmitype/StillImage" />
        <dc:title></dc:title>
      </cc:Work>
    </rdf:RDF>
  </metadata>
  <g
     inkscape:label="Layer 1"
     inkscape:groupmode="layer"
     id="layer1"
     transform="translate(-3.6380212,-2.7875745)">
    <path
       id="path835"
       style="fill:#00713f;fill-opacity:1;stroke:#073009;stroke-width:0.1;stroke-linecap:butt;stroke-linejoin:round;stroke-miterlimit:4;stroke-dasharray:none;stroke-opacity:1"
       d="M 5.6555729,3.5402188 C 5.6356434,3.4641166 5.4180974,3.7210572 5.4187015,3.643906 5.4192091,3.5790803 5.2738292,3.770507 5.23209,3.698676 5.2019822,3.646862 5.1059753,3.9207165 5.0719666,3.8330201 5.0468376,3.7682221 4.9800585,3.9970351 4.9434538,3.9306697 4.9140129,3.8772927 4.8135055,4.0870873 4.7731365,4.0043021 4.739128,3.9345606 4.6567006,4.2429837 4.6257366,4.1844606 4.5782886,4.0947821 4.5366255,4.4492075 4.4821415,4.3972942 c -0.064834,-0.061775 -0.041737,0.1868761 -0.098157,0.1677287 -0.1111126,-0.037709 0.011436,0.2124358 -0.076509,0.1659172 -0.046889,-0.024802 0.075798,0.2848798 -0.063226,0.196019 -0.065563,-0.041906 0.044351,0.2314025 -0.032218,0.2182373 -0.051116,-0.00879 0.071858,0.2434658 0.00866,0.2105689 -0.069175,-0.036009 0.1724542,0.2219956 0.1107737,0.2459652 -0.074917,0.029113 0.2312044,0.2434985 0.1526943,0.227782 -0.1002225,-0.020063 0.3006614,0.1606677 0.2308729,0.2017942 -0.055776,0.032869 0.1153623,0.062871 0.1787799,0.07589 0.07662,0.015729 0.1782836,0.055051 0.2346535,8.242e-4 0.057481,-0.055295 0.1347501,0.017553 0.2025318,0.01831 0.056033,6.255e-4 0.1165919,0.011535 0.167722,-0.011395 0.1019838,-0.045735 0.1731325,-0.189032 0.2394796,-0.2346944 -0.052619,0.3537146 0.2362622,0.8389197 0.2362622,0.8389197 0.032314,0.056555 0.046796,0.052845 0.1374175,-0.00854 0,0 -0.3240982,-0.4831878 -0.3036352,-0.8193628 0.066347,0.045662 0.082786,0.2129013 0.1588621,0.2944479 0.083782,0.089807 0.1883514,0.245984 0.3113636,0.1970143 0.039108,-0.015568 0.4704975,0.076313 0.4172314,-0.056982 C 6.6775279,6.2802577 7.0282048,6.2560051 6.950702,6.220758 6.8757768,6.1866832 7.2387936,6.0681356 7.0893428,6.0164236 6.9837257,5.9798787 7.3700607,5.7332742 7.2492351,5.7217222 7.1493593,5.7121732 7.4480282,5.3889485 7.3446874,5.4362643 7.227161,5.4900752 7.4017673,5.1071819 7.3332486,5.1621749 7.2891724,5.1975505 7.3150527,5.0504445 7.3112833,4.9940536 7.3068861,4.928271 7.33575,4.8572009 7.3105765,4.7962667 7.2958688,4.7606657 7.2531559,4.7443625 7.2293093,4.7141121 7.195153,4.6707832 7.182925,4.5057104 7.1420665,4.5734525 7.1035993,4.63723 7.0514155,4.3396701 7.0091657,4.3676237 6.9485273,4.4077437 6.9291829,4.2402073 6.8674358,4.2018155 6.8272942,4.1768572 6.7677358,4.1953424 6.730005,4.1668705 6.696318,4.1414501 6.6961945,4.0872642 6.6663394,4.0574366 6.6263219,4.0174561 6.5265323,3.8962648 6.5195766,3.9722353 6.5137892,4.0354463 6.4110024,3.8345991 6.3591688,3.8696124 6.3046882,3.9064138 6.261617,3.7229576 6.2175966,3.7322822 6.1735414,3.7416141 6.1572635,3.6734165 6.1348973,3.6381403 6.0969442,3.5782805 6.0656202,3.5122701 6.0502661,3.4430755 6.0243381,3.3262279 6.0288758,3.271538 6.0404418,3.0841406 5.984437,3.2534806 5.9380748,3.283483 5.8824828,3.3956056 5.8190285,3.5235853 5.6715055,3.6010582 5.6555729,3.5402188 Z"
       sodipodi:nodetypes="ssssssssssssssssasaaccccasssssssaaassaaasssaacss" />
  </g>
</svg>
