<?xml version="1.0" encoding="UTF-8" standalone="no"?>
<svg
   xmlns:dc="http://purl.org/dc/elements/1.1/"
   xmlns:cc="http://creativecommons.org/ns#"
   xmlns:rdf="http://www.w3.org/1999/02/22-rdf-syntax-ns#"
   xmlns:svg="http://www.w3.org/2000/svg"
   xmlns="http://www.w3.org/2000/svg"
   xmlns:sodipodi="http://sodipodi.sourceforge.net/DTD/sodipodi-0.dtd"
   xmlns:inkscape="http://www.inkscape.org/namespaces/inkscape"
   width="16"
   height="16"
   viewBox="0 0 4.2333333 4.2333333"
   version="1.1"
   id="svg8"
   inkscape:version="1.0 (4035a4fb49, 2020-05-01)"
   sodipodi:docname="maple.svg">
  <defs
     id="defs2" />
  <sodipodi:namedview
     id="base"
     pagecolor="#ffffff"
     bordercolor="#666666"
     borderopacity="1.0"
     inkscape:pageopacity="0.0"
     inkscape:pageshadow="2"
     inkscape:zoom="90.509668"
     inkscape:cx="5.0435429"
     inkscape:cy="10.180793"
     inkscape:document-units="mm"
     inkscape:current-layer="layer1"
     inkscape:document-rotation="0"
     showgrid="false"
     inkscape:snap-global="false"
     fit-margin-top="0"
     fit-margin-left="0"
     fit-margin-right="0"
     fit-margin-bottom="0"
     units="px"
     inkscape:window-width="3840"
     inkscape:window-height="2050"
     inkscape:window-x="-12"
     inkscape:window-y="-12"
     inkscape:window-maximized="1" />
  <metadata
     id="metadata5">
    <rdf:RDF>
      <cc:Work
         rdf:about="">
        <dc:format>image/svg+xml</dc:format>
        <dc:type
           rdf:resource="http://purl.org/dc/dcmitype/StillImage" />
        <dc:title />
      </cc:Work>
    </rdf:RDF>
  </metadata>
  <g
     inkscape:label="Layer 1"
     inkscape:groupmode="layer"
     id="layer1"
     transform="translate(-3.6380212,-2.7875745)">
    <path
       id="path835"
       style="fill:#00713f;fill-opacity:1;stroke:#073009;stroke-width:0.1;stroke-linecap:butt;stroke-linejoin:round;stroke-miterlimit:4;stroke-dasharray:none;stroke-opacity:1"
       d="M 5.4347881,3.7257271 C 5.3489661,3.7932171 5.3340816,3.5571971 5.248823,3.7581211 5.221819,3.8217591 5.150947,4.1194312 5.178762,4.2547231 5.201848,4.3670142 5.259911,4.5519502 5.160581,4.4925921 5.109601,4.4621281 5.063678,4.4127601 5.017946,4.328602 4.975156,4.24986 4.7561311,4.0504466 4.7632766,4.1872099 c 0.00489,0.093604 -0.3373053,-0.2473608 -0.312435,-0.09333 0.015317,0.094865 -0.1266575,-0.079107 -0.2837525,-0.2252397 0.026409,0.112004 -0.00458,0.4224396 0.099871,0.5017547 0.1103896,0.083823 0.00573,0.1888479 0.067208,0.2779922 0.064857,0.094035 -0.1083295,0.074072 -0.260545,0.078876 -0.031222,9.853e-4 0.1586813,0.1081322 0.1860399,0.1683307 0.04494,0.098884 0.3432153,0.1979059 0.2864973,0.2446597 -0.089748,0.073981 0.2835254,0.095133 0.2991236,0.3007476 0.015598,0.2056146 -0.2999054,0.1083197 -0.2786461,0.1684476 0.021393,0.060506 -0.1834692,-0.00652 -0.1519475,0.057557 0.029645,0.060257 -0.091305,0.057867 -0.2389389,0.080013 0.039046,0.021731 0.1504939,0.1092024 0.2213347,0.1482456 0.083268,0.045892 0.1912896,-0.027258 0.1359624,0.03201 -0.074265,0.079555 0.062308,0.097762 0.20201,0.1017312 0.139702,0.00397 0.2696728,-0.1697073 0.2986095,-0.1146193 0.041013,0.07808 -0.10587,0.091826 -0.078467,0.1138926 0.062504,0.050331 0.00588,0.070069 -0.040133,0.1265248 0.1132478,0.041468 0.2411019,0.075821 0.3545413,0.00954 0.1169039,-0.068306 0.169124,0.00845 0.2408035,-0.028935 C 5.6115009,6.0826781 5.6718539,5.9259124 5.738201,5.8802502 5.685582,6.2339648 5.714014,6.7026334 5.714014,6.7026334 c 0.032314,0.056555 0.046796,0.052845 0.1374175,-0.00854 0,0 -0.063649,-0.4666513 -0.043186,-0.8028263 0.066347,0.045662 0.1427529,0.040684 0.177111,0.1409487 0.034147,0.099648 0.2198343,0.1820341 0.2524469,0.1361771 0.048354,-0.067991 0.2125106,0.025135 0.3127537,-0.021574 0.00508,-0.0409 -0.070162,-0.074609 -0.044801,-0.094891 0.045078,-0.036051 -0.1229285,-0.028232 -0.054832,-0.072186 0.15192,-0.098061 0.1741597,-0.00302 0.2544,-0.032516 0.04884,-0.017953 0.024319,-0.0661 0.1307982,-0.08521 C 7.0042054,5.8318528 7.2551699,5.7893362 7.203931,5.7389318 7.1449037,5.6808659 7.4042276,5.5669991 7.4617068,5.5259426 7.327247,5.4440913 7.0005255,5.5128291 7.0789042,5.4282408 7.1721768,5.3275785 6.891036,5.3904455 6.831344,5.254777 6.7667949,5.1080764 7.2748871,5.0559527 7.0723356,4.9969769 6.9144215,4.9509979 7.3176685,4.7550375 7.3336332,4.6973417 7.2285063,4.7006205 7.1594828,4.6755514 7.1219083,4.6673403 7.0537792,4.6524522 7.1708235,4.6180128 7.2191053,4.531374 7.2906729,4.4029501 7.3037706,4.0502458 7.3107849,3.8483016 7.2733401,3.8268306 6.9991315,4.0238402 7.0262544,3.9248181 7.0697514,3.7660164 6.720774,4.0884364 6.6911219,4.1362194 6.6083418,4.269616 6.5745117,4.1140274 6.4714588,4.2775626 6.4173434,4.3634386 6.3538601,4.4014404 6.2809079,4.4345512 6.2079557,4.467662 6.2341242,4.3352597 6.2522798,4.2488053 6.2861386,4.0875739 6.1289242,4.2618394 6.1562081,4.1356921 6.1870415,3.9931336 6.1197297,3.7219615 6.0561265,3.7364672 5.8749222,3.7777938 5.9923617,3.4404488 5.8840558,3.4790109 5.7733713,3.5184199 5.7342497,3.1899196 5.683804,3.066601 5.6277992,3.235941 5.5942368,3.3926263 5.5483393,3.4897732 5.5070377,3.5771921 5.5666821,3.6220063 5.4347881,3.7257271 Z"
       sodipodi:nodetypes="ssssssscssssszsscsszsscsaccccsscssasscssscsscssszsssscss" />
  </g>
</svg>
