<?xml version="1.0" encoding="UTF-8" standalone="no"?>
<svg
   xmlns:dc="http://purl.org/dc/elements/1.1/"
   xmlns:cc="http://creativecommons.org/ns#"
   xmlns:rdf="http://www.w3.org/1999/02/22-rdf-syntax-ns#"
   xmlns:svg="http://www.w3.org/2000/svg"
   xmlns="http://www.w3.org/2000/svg"
   xmlns:sodipodi="http://sodipodi.sourceforge.net/DTD/sodipodi-0.dtd"
   xmlns:inkscape="http://www.inkscape.org/namespaces/inkscape"
   width="16"
   height="16"
   viewBox="0 0 4.2333333 4.2333333"
   version="1.1"
   id="svg8"
   inkscape:version="1.0 (4035a4fb49, 2020-05-01)"
   sodipodi:docname="populus.svg">
  <defs
     id="defs2" />
  <sodipodi:namedview
     id="base"
     pagecolor="#ffffff"
     bordercolor="#666666"
     borderopacity="1.0"
     inkscape:pageopacity="0.0"
     inkscape:pageshadow="2"
     inkscape:zoom="8"
     inkscape:cx="-41.538386"
     inkscape:cy="-20.04553"
     inkscape:document-units="mm"
     inkscape:current-layer="layer1"
     inkscape:document-rotation="0"
     showgrid="false"
     inkscape:snap-global="false"
     fit-margin-top="0"
     fit-margin-left="0"
     fit-margin-right="0"
     fit-margin-bottom="0"
     units="px"
     inkscape:window-width="3840"
     inkscape:window-height="2050"
     inkscape:window-x="-12"
     inkscape:window-y="-12"
     inkscape:window-maximized="1" />
  <metadata
     id="metadata5">
    <rdf:RDF>
      <cc:Work
         rdf:about="">
        <dc:format>image/svg+xml</dc:format>
        <dc:type
           rdf:resource="http://purl.org/dc/dcmitype/StillImage" />
        <dc:title></dc:title>
      </cc:Work>
    </rdf:RDF>
  </metadata>
  <g
     inkscape:label="Layer 1"
     inkscape:groupmode="layer"
     id="layer1"
     transform="translate(-3.6380212,-2.7875745)">
    <path
       id="path835"
       style="fill:#00713f;fill-opacity:1;stroke:#073009;stroke-width:0.1;stroke-linecap:butt;stroke-linejoin:round;stroke-miterlimit:4;stroke-dasharray:none;stroke-opacity:1"
       d="M 5.5303646,3.7873672 C 5.5120418,3.7188637 5.4588928,3.977855 5.4455366,3.909647 5.4325647,3.8434001 5.4168098,4.0893921 5.3784348,4.0247331 5.3507533,3.9780925 5.302799,4.3035454 5.2715314,4.2246051 5.2484276,4.1662769 5.1665679,4.3868602 5.1329132,4.3271215 5.105845,4.2790739 5.0332375,4.5644116 4.996122,4.4898921 4.9648549,4.4271136 4.8810632,4.623247 4.8525948,4.5705676 c -0.043624,-0.080724 -0.04419,0.1234898 -0.094283,0.07676 -0.059609,-0.055607 -0.038485,0.059372 -0.090358,0.042137 -0.1021575,-0.033944 -0.01184,0.1770245 -0.070343,0.1072489 -0.063781,-0.07607 0.020895,0.1718509 -0.1069236,0.091863 -0.060279,-0.037722 0.030442,0.1876273 -0.039956,0.1757766 -0.046996,-0.00791 0.066067,0.2191568 0.00796,0.1895445 -0.0636,-0.032414 0.1585553,0.1998304 0.1018459,0.2214067 -0.068879,0.026206 0.1878645,0.1987189 0.1156819,0.1845716 -0.092145,-0.01806 0.2795784,0.080811 0.2154145,0.1178311 -0.051281,0.029587 0.1847334,0.07084 0.1267439,0.097258 -0.093243,0.042478 0.2358624,-0.023121 0.188865,0.063895 -0.034279,0.063469 0.1248994,0.00553 0.1862088,0.016482 0.057009,0.01019 0.1114115,0.031325 0.1675078,0.045563 0.068832,0.017471 0.1033901,-0.031036 0.2073926,0.048905 -0.048378,0.3183977 0.205953,0.5681097 0.205953,0.5681097 0.02971,0.050908 0.043024,0.047569 0.1263424,-0.00769 0,0 -0.2867099,-0.2478961 -0.2678961,-0.5505055 0.058312,-0.064152 0.076253,-0.05896 0.1199133,-0.078824 0.1039844,-0.047309 0.2099551,-0.1077055 0.3307117,-0.092663 0.090906,0.011324 0.3658348,-0.00207 0.311443,-0.1176382 -0.018844,-0.04004 0.3057076,-0.062771 0.2344512,-0.094499 -0.068887,-0.030673 0.270377,-0.1783185 0.1329711,-0.2248673 -0.097105,-0.032896 0.1558412,-0.2003174 0.054384,-0.2098145 -0.101457,-0.0095 0.095981,-0.1487513 0.031318,-0.1248392 -0.064662,0.023912 0.046022,-0.1279075 -0.013664,-0.088161 C 6.9745944,5.0681651 7.0463611,4.8719372 7.004066,4.900376 6.961771,4.9288149 6.9908233,4.745637 6.9589128,4.7764278 6.9224955,4.8115673 6.8788448,4.584713 6.8412793,4.6456913 6.8059123,4.7031009 6.7842908,4.5586617 6.7454462,4.5838243 6.6896949,4.6199385 6.6681765,4.4548541 6.6190078,4.5226324 6.593843,4.5573217 6.4843426,4.3871875 6.4457903,4.4494182 6.4120718,4.5038461 6.3383148,4.2848279 6.281856,4.3497091 6.2172083,4.4240006 6.1832217,4.1926563 6.1768266,4.2610415 6.1715056,4.3179411 6.1235321,4.0974898 6.075876,4.1290072 6.0257863,4.1621341 6.0530831,3.9461596 6.00753,3.9817063 5.8877433,4.0751802 5.9645938,3.7173991 5.9084848,3.7835317 5.8669193,3.8325229 5.8528068,3.4647267 5.8162939,3.4971421 5.7327427,3.5713173 5.7368857,3.2850741 5.7565726,3.0991125 5.7050815,3.2515447 5.6513363,3.5521545 5.6125707,3.5326604 5.5491201,3.5007529 5.5450132,3.8421321 5.5303646,3.7873672 Z"
       sodipodi:nodetypes="ssssssssssssssssssaaccccasssszzzzssssssssssscss" />
  </g>
</svg>
